name Walk5.mot
datacolumns 19
datarows 15
range 2.67100000 2.68500000
endheader

                time	   L_ground_force_vx	   L_ground_force_vy	   L_ground_force_vz	   L_ground_force_px	   L_ground_force_py	   L_ground_force_pz	   R_ground_force_vx	   R_ground_force_vy	   R_ground_force_vz	   R_ground_force_px	   R_ground_force_py	   R_ground_force_pz	   L_ground_torque_x	   L_ground_torque_y	   L_ground_torque_z	   R_ground_torque_x	   R_ground_torque_y	   R_ground_torque_z	
          2.67100000	         28.30595148	        958.59786321	         65.74774857	         -0.23258202	          0.00000000	         -0.04020400	         -0.03339848	          0.25751055	          0.02475659	          0.00020884	          0.00000000	          0.00009616	          0.00000000	         -2.05344919	          0.00000000	          0.00000000	          0.00553119	          0.00000000	
          2.67200000	         28.92162046	        959.14286359	         65.85132726	         -0.23229435	          0.00000000	         -0.04025042	         -0.03554019	          0.27703841	          0.02626512	          0.00021960	          0.00000000	          0.00010113	          0.00000000	         -2.03886941	          0.00000000	          0.00000000	          0.00589158	          0.00000000	
          2.67300000	         29.53921983	        959.68222111	         65.95572832	         -0.23200514	          0.00000000	         -0.04029725	         -0.03773415	          0.29723675	          0.02780535	          0.00023046	          0.00000000	          0.00010615	          0.00000000	         -2.02413174	          0.00000000	          0.00000000	          0.00626111	          0.00000000	
          2.67400000	         30.15855646	        960.21604029	         66.06095310	         -0.23171436	          0.00000000	         -0.04034450	         -0.03997614	          0.31808446	          0.02937387	          0.00024137	          0.00000000	          0.00011119	          0.00000000	         -2.00923679	          0.00000000	          0.00000000	          0.00663914	          0.00000000	
          2.67500000	         30.77943819	        960.74441302	         66.16700113	         -0.23142203	          0.00000000	         -0.04039216	         -0.04226138	          0.33955579	          0.03096684	          0.00025230	          0.00000000	          0.00011624	          0.00000000	         -1.99418705	          0.00000000	          0.00000000	          0.00702486	          0.00000000	
          2.67600000	         31.40167366	        961.26741753	         66.27387021	         -0.23112813	          0.00000000	         -0.04044024	         -0.04458443	          0.36162001	          0.03257995	          0.00026321	          0.00000000	          0.00012128	          0.00000000	         -1.97898670	          0.00000000	          0.00000000	          0.00741743	          0.00000000	
          2.67700000	         32.02507221	        961.78511805	         66.38155665	         -0.23083264	          0.00000000	         -0.04048876	         -0.04693922	          0.38424109	          0.03420840	          0.00027404	          0.00000000	          0.00012629	          0.00000000	         -1.96364144	          0.00000000	          0.00000000	          0.00781583	          0.00000000	
          2.67800000	         32.64944376	        962.29756471	         66.49005525	         -0.23053557	          0.00000000	         -0.04053772	         -0.04931897	          0.40737735	          0.03584689	          0.00028474	          0.00000000	          0.00013124	          0.00000000	         -1.94815815	          0.00000000	          0.00000000	          0.00821898	          0.00000000	
          2.67900000	         33.27459878	        962.80479372	         66.59935914	         -0.23023690	          0.00000000	         -0.04058713	         -0.05171619	          0.43098112	          0.03748960	          0.00029527	          0.00000000	          0.00013612	          0.00000000	         -1.93254464	          0.00000000	          0.00000000	          0.00862565	          0.00000000	
          2.68000000	         33.90034808	        963.30682764	         66.70945940	         -0.22993662	          0.00000000	         -0.04063702	         -0.05412258	          0.45499836	          0.03913013	          0.00030555	          0.00000000	          0.00014088	          0.00000000	         -1.91680947	          0.00000000	          0.00000000	          0.00903449	          0.00000000	
          2.68100000	         34.52650253	        963.80367587	         66.82034474	         -0.22963471	          0.00000000	         -0.04068739	         -0.05652906	          0.47936829	          0.04076150	          0.00031553	          0.00000000	          0.00014550	          0.00000000	         -1.90096190	          0.00000000	          0.00000000	          0.00944400	          0.00000000	
          2.68200000	         35.15287280	        964.29533530	         66.93200118	         -0.22933117	          0.00000000	         -0.04073826	         -0.05892570	          0.50402306	          0.04237613	          0.00032513	          0.00000000	          0.00014995	          0.00000000	         -1.88501213	          0.00000000	          0.00000000	          0.00985257	          0.00000000	
          2.68300000	         35.77926903	        964.78179076	         67.04441175	         -0.22902596	          0.00000000	         -0.04078964	         -0.06130170	          0.52888730	          0.04396578	          0.00033428	          0.00000000	          0.00015420	          0.00000000	         -1.86897149	          0.00000000	          0.00000000	          0.01025841	          0.00000000	
          2.68400000	         36.40550054	        965.26301533	         67.15755602	         -0.22871909	          0.00000000	         -0.04084156	         -0.06364531	          0.55387780	          0.04552158	          0.00034290	          0.00000000	          0.00015820	          0.00000000	         -1.85285271	          0.00000000	          0.00000000	          0.01065960	          0.00000000	
          2.68500000	         37.03137569	        965.73897022	         67.27140962	         -0.22841052	          0.00000000	         -0.04089403	         -0.06594386	          0.57890308	          0.04703395	          0.00035090	          0.00000000	          0.00016192	          0.00000000	         -1.83667008	          0.00000000	          0.00000000	          0.01105404	          0.00000000	
